<svg width="221" height="54" viewBox="0 0 221 54" fill="none" xmlns="http://www.w3.org/2000/svg">
<g clip-path="url(#clip0_6441_13194)">
<path d="M18.8645 15.3795H12.3001L11.2061 18.521H7.73633L13.6755 2.00058H17.5203L23.4439 18.5054H19.9429L18.8488 15.3638L18.8645 15.3795ZM17.9736 12.7381L15.5823 5.84544L13.191 12.7381H17.958H17.9736Z" fill="#032644"/>
<path d="M28.9765 1.04718V18.521H25.6631V1.04718H28.9765Z" fill="#032644"/>
<path d="M37.3071 5.81418C38.0573 5.42345 38.9169 5.22026 39.8703 5.22026C40.9956 5.22026 41.9959 5.50159 42.9024 6.04863C43.8089 6.59566 44.5279 7.37714 45.0593 8.39306C45.5907 9.40897 45.8564 10.5812 45.8564 11.9253C45.8564 13.2695 45.5907 14.4417 45.0593 15.4732C44.5279 16.5048 43.8089 17.3019 42.9024 17.8645C41.9959 18.4272 40.98 18.7085 39.8703 18.7085C38.9013 18.7085 38.0417 18.521 37.3071 18.1302C36.5725 17.7395 35.9942 17.2394 35.541 16.6298V18.4897H32.2275V1.04718H35.541V7.36151C35.963 6.73633 36.5569 6.22055 37.3071 5.82981V5.81418ZM41.9803 9.89349C41.6521 9.3152 41.2301 8.87757 40.6987 8.58061C40.1673 8.28365 39.6046 8.12735 38.9794 8.12735C38.3543 8.12735 37.8229 8.28365 37.2915 8.58061C36.7601 8.8932 36.3381 9.33083 36.0099 9.90912C35.6816 10.4874 35.5253 11.1751 35.5253 11.9566C35.5253 12.7381 35.6816 13.4258 36.0099 14.0041C36.3381 14.5823 36.7601 15.0356 37.2915 15.3326C37.8229 15.6452 38.3855 15.7858 38.9794 15.7858C39.5734 15.7858 40.1673 15.6295 40.6987 15.3169C41.2301 15.0043 41.6521 14.5511 41.9803 13.9728C42.3085 13.3945 42.4648 12.6912 42.4648 11.8941C42.4648 11.097 42.3085 10.4249 41.9803 9.8466V9.89349Z" fill="#032644"/>
<path d="M60.3288 12.9725H50.7636C50.8418 13.9103 51.17 14.6605 51.7483 15.1919C52.3266 15.7233 53.0455 15.989 53.9052 15.989C55.1399 15.989 55.9995 15.4576 56.5309 14.4104H60.0944C59.7193 15.6764 58.9847 16.708 57.9219 17.5207C56.8435 18.3334 55.5306 18.7398 53.9833 18.7398C52.7173 18.7398 51.592 18.4585 50.5917 17.8958C49.5914 17.3331 48.81 16.5517 48.2473 15.5201C47.6847 14.5042 47.4033 13.3164 47.4033 11.9722C47.4033 10.6281 47.6847 9.4246 48.2317 8.40868C48.7787 7.39276 49.5602 6.59566 50.5448 6.04863C51.5295 5.50159 52.6861 5.22026 53.9677 5.22026C55.2493 5.22026 56.3277 5.48596 57.3124 6.01737C58.297 6.54877 59.0629 7.31462 59.6099 8.29928C60.1569 9.28394 60.4226 10.4093 60.4226 11.6909C60.4226 12.1598 60.3914 12.5818 60.3288 12.9725ZM56.9998 10.7531C56.9842 9.90912 56.6716 9.22142 56.0777 8.70564C55.4837 8.18987 54.7491 7.9398 53.8739 7.9398C53.0612 7.9398 52.3578 8.18987 51.8108 8.69001C51.2482 9.19016 50.9043 9.87786 50.7793 10.7531H56.9842H56.9998Z" fill="#032644"/>
<path d="M67.8002 5.82981C68.4879 5.43907 69.2694 5.23589 70.1447 5.23589V8.70564H69.2694C68.2222 8.70564 67.4408 8.95571 66.925 9.44023C66.3936 9.92474 66.1279 10.7844 66.1279 11.9878V18.5054H62.8145V5.43907H66.1279V7.47091C66.5499 6.78321 67.1125 6.23618 67.8002 5.84544V5.82981Z" fill="#032644"/>
<path d="M76.224 8.14298V14.4729C76.224 14.9106 76.3335 15.2388 76.5366 15.4263C76.7554 15.6295 77.1149 15.7233 77.6151 15.7233H79.1467V18.5054H77.068C74.286 18.5054 72.8793 17.1456 72.8793 14.4417V8.12735H71.3164V5.40782H72.8793V2.20377H76.2084V5.43908H79.1311V8.15861H76.2084L76.224 8.14298Z" fill="#032644"/>
<path d="M83.6639 18.1459C82.8199 17.7551 82.1478 17.2394 81.6477 16.5673C81.1476 15.9109 80.8818 15.1763 80.835 14.3635H84.164C84.2265 14.8637 84.4766 15.2857 84.9142 15.6139C85.3519 15.9421 85.8833 16.114 86.5397 16.114C87.1961 16.114 87.665 15.989 88.0089 15.7389C88.3527 15.4889 88.5403 15.1606 88.5403 14.7699C88.5403 14.3479 88.3215 14.0197 87.8838 13.8165C87.4462 13.5977 86.7585 13.3789 85.8207 13.1132C84.8517 12.8787 84.039 12.6287 83.4294 12.3786C82.8043 12.1285 82.2729 11.7378 81.8196 11.222C81.3664 10.7062 81.1475 10.0029 81.1475 9.12765C81.1475 8.40869 81.3507 7.73662 81.7727 7.1427C82.1947 6.54877 82.7886 6.06426 83.5701 5.72041C84.3516 5.37656 85.2737 5.20464 86.3209 5.20464C87.8838 5.20464 89.1186 5.59537 90.0563 6.37685C90.9941 7.15833 91.4942 8.2055 91.588 9.53401H88.4152C88.3683 9.01824 88.1495 8.59624 87.7588 8.29928C87.3681 7.98669 86.8523 7.84602 86.2115 7.84602C85.6176 7.84602 85.1487 7.95543 84.8361 8.17425C84.5079 8.39306 84.3516 8.70565 84.3516 9.09639C84.3516 9.53401 84.5704 9.87786 85.008 10.0967C85.4456 10.3311 86.1333 10.5499 87.0555 10.8C87.9932 11.0344 88.7747 11.2845 89.3999 11.5346C90.0094 11.7847 90.5408 12.1754 90.9941 12.7068C91.4473 13.2382 91.6818 13.9259 91.6974 14.8012C91.6974 15.5514 91.4942 16.2391 91.0722 16.833C90.6502 17.4269 90.0563 17.8958 89.2748 18.2397C88.4934 18.5835 87.5869 18.7554 86.5397 18.7554C85.4925 18.7554 84.5079 18.5679 83.6639 18.1771V18.1459Z" fill="#032644"/>
<path d="M96.8242 17.8958C95.8239 17.3331 95.0268 16.5517 94.4485 15.5201C93.8702 14.5042 93.5889 13.3164 93.5889 11.9722C93.5889 10.6281 93.8858 9.45587 94.4797 8.42432C95.0737 7.4084 95.8708 6.61129 96.9023 6.04863C97.9182 5.48597 99.0748 5.20464 100.325 5.20464C101.576 5.20464 102.732 5.48597 103.748 6.04863C104.764 6.61129 105.577 7.39277 106.171 8.42432C106.764 9.45587 107.061 10.6281 107.061 11.9722C107.061 13.3164 106.764 14.4886 106.155 15.5201C105.545 16.5517 104.733 17.3331 103.701 17.8958C102.67 18.4585 101.513 18.7398 100.247 18.7398C98.981 18.7398 97.8557 18.4585 96.8398 17.8958H96.8242ZM101.904 15.4107C102.435 15.1138 102.857 14.6761 103.17 14.0978C103.482 13.5195 103.639 12.8006 103.639 11.9722C103.639 10.7219 103.31 9.76846 102.654 9.09639C101.997 8.42432 101.2 8.0961 100.263 8.0961C99.3249 8.0961 98.5278 8.42432 97.887 9.09639C97.2462 9.76846 96.9336 10.7219 96.9336 11.9722C96.9336 13.2226 97.2461 14.176 97.8713 14.8481C98.4965 15.5201 99.278 15.8483 100.216 15.8483C100.81 15.8483 101.372 15.7077 101.904 15.4107Z" fill="#032644"/>
<path d="M120.518 6.7207C121.471 7.70536 121.956 9.08076 121.956 10.8469V18.521H118.642V11.3002C118.642 10.2686 118.377 9.45587 117.861 8.90883C117.345 8.34617 116.626 8.06484 115.735 8.06484C114.844 8.06484 114.094 8.34617 113.578 8.90883C113.047 9.4715 112.781 10.2686 112.781 11.3002V18.521H109.468V5.43908H112.781V7.06455C113.219 6.50189 113.781 6.04863 114.469 5.73604C115.157 5.40782 115.907 5.25153 116.72 5.25153C118.283 5.25153 119.533 5.75167 120.502 6.7207H120.518Z" fill="#032644"/>
<path d="M127.223 18.1459C126.379 17.7551 125.707 17.2394 125.207 16.5673C124.707 15.9109 124.441 15.1763 124.395 14.3635H127.724C127.786 14.8637 128.036 15.2857 128.474 15.6139C128.911 15.9421 129.443 16.114 130.099 16.114C130.756 16.114 131.225 15.989 131.568 15.7389C131.912 15.4889 132.1 15.1606 132.1 14.7699C132.1 14.3479 131.881 14.0197 131.443 13.8165C131.006 13.5977 130.318 13.3789 129.38 13.1132C128.411 12.8787 127.599 12.6287 126.989 12.3786C126.364 12.1285 125.832 11.7378 125.379 11.222C124.926 10.7062 124.707 10.0029 124.707 9.12765C124.707 8.40869 124.91 7.73662 125.332 7.1427C125.754 6.54877 126.348 6.06426 127.13 5.72041C127.911 5.37656 128.833 5.20464 129.88 5.20464C131.443 5.20464 132.678 5.59537 133.616 6.37685C134.554 7.15833 135.054 8.2055 135.148 9.53401H131.975C131.928 9.01824 131.709 8.59624 131.318 8.29928C130.928 7.98669 130.412 7.84602 129.771 7.84602C129.177 7.84602 128.708 7.95543 128.396 8.17425C128.067 8.39306 127.911 8.70565 127.911 9.09639C127.911 9.53401 128.13 9.87786 128.568 10.0967C129.005 10.3311 129.693 10.5499 130.615 10.8C131.553 11.0344 132.334 11.2845 132.959 11.5346C133.569 11.7847 134.1 12.1754 134.554 12.7068C135.007 13.2382 135.241 13.9259 135.257 14.8012C135.257 15.5514 135.054 16.2391 134.632 16.833C134.21 17.4269 133.616 17.8958 132.834 18.2397C132.053 18.5835 131.146 18.7554 130.099 18.7554C129.052 18.7554 128.067 18.5679 127.223 18.1771V18.1459Z" fill="#032644"/>
<path d="M161.561 2.03185V18.521H158.247V7.79914L153.824 18.521H151.323L146.885 7.79914V18.521H143.571V2.03185H147.322L152.574 14.2854L157.825 2.03185H161.561Z" fill="#032644"/>
<path d="M176.893 12.9725H167.328C167.406 13.9103 167.734 14.6605 168.313 15.1919C168.891 15.7233 169.61 15.989 170.47 15.989C171.704 15.989 172.564 15.4576 173.095 14.4104H176.659C176.284 15.6764 175.549 16.708 174.486 17.5207C173.408 18.3334 172.095 18.7398 170.548 18.7398C169.282 18.7398 168.156 18.4585 167.156 17.8958C166.156 17.3331 165.374 16.5517 164.812 15.5201C164.249 14.5042 163.968 13.3164 163.968 11.9722C163.968 10.6281 164.249 9.4246 164.796 8.40868C165.343 7.39276 166.125 6.59566 167.109 6.04863C168.094 5.50159 169.251 5.22026 170.532 5.22026C171.814 5.22026 172.892 5.48596 173.877 6.01737C174.861 6.54877 175.627 7.31462 176.174 8.29928C176.721 9.28394 176.987 10.4093 176.987 11.6909C176.987 12.1598 176.956 12.5818 176.893 12.9725ZM173.564 10.7531C173.549 9.90912 173.236 9.22142 172.642 8.70564C172.048 8.18987 171.314 7.9398 170.438 7.9398C169.626 7.9398 168.922 8.18987 168.375 8.69001C167.813 9.19016 167.469 9.87786 167.344 10.7531H173.549H173.564Z" fill="#032644"/>
<path d="M179.347 8.40869C179.878 7.39277 180.597 6.59566 181.504 6.04863C182.41 5.50159 183.426 5.22026 184.552 5.22026C185.395 5.22026 186.208 5.40782 186.99 5.78293C187.756 6.15803 188.381 6.64255 188.834 7.2521V1.04718H192.194V18.521H188.834V16.5829C188.428 17.2237 187.849 17.7551 187.115 18.1459C186.38 18.5366 185.521 18.7398 184.536 18.7398C183.426 18.7398 182.426 18.4585 181.519 17.8958C180.613 17.3331 179.878 16.536 179.363 15.5045C178.831 14.4729 178.565 13.2851 178.565 11.9566C178.565 10.6281 178.831 9.45586 179.363 8.43994L179.347 8.40869ZM188.381 9.90912C188.068 9.33083 187.646 8.8932 187.099 8.58061C186.568 8.26802 185.989 8.12735 185.38 8.12735C184.77 8.12735 184.192 8.28365 183.676 8.58061C183.16 8.87757 182.738 9.3152 182.41 9.89349C182.082 10.4718 181.926 11.1439 181.926 11.941C181.926 12.7381 182.082 13.4101 182.41 14.0041C182.738 14.598 183.16 15.0512 183.692 15.3638C184.223 15.6764 184.786 15.8327 185.38 15.8327C185.974 15.8327 186.568 15.6764 187.099 15.3795C187.63 15.0669 188.052 14.6292 188.381 14.0509C188.693 13.4727 188.85 12.785 188.85 11.9878C188.85 11.1907 188.693 10.503 188.381 9.92475V9.90912Z" fill="#032644"/>
<path d="M195.633 3.31346C195.242 2.93835 195.055 2.48509 195.055 1.93806C195.055 1.39103 195.242 0.922142 195.633 0.562663C196.024 0.187554 196.508 0 197.087 0C197.665 0 198.149 0.187554 198.54 0.562663C198.931 0.937771 199.118 1.39103 199.118 1.93806C199.118 2.48509 198.931 2.95398 198.54 3.31346C198.149 3.68857 197.665 3.87612 197.087 3.87612C196.508 3.87612 196.024 3.68857 195.633 3.31346ZM198.728 5.43907V18.521H195.414V5.43907H198.728Z" fill="#032644"/>
<path d="M208.121 18.1459C207.308 18.5522 206.418 18.7554 205.48 18.7554C204.667 18.7554 203.917 18.5835 203.26 18.2553C202.604 17.9271 202.073 17.4738 201.697 16.8799C201.322 16.286 201.135 15.6295 201.135 14.8793C201.135 13.6602 201.588 12.6755 202.495 11.9097C203.401 11.1439 204.761 10.7531 206.574 10.7531H209.903C209.872 9.92475 209.637 9.25268 209.184 8.75254C208.731 8.25239 208.121 8.00232 207.324 8.00232C206.636 8.00232 206.058 8.18987 205.605 8.56498C205.152 8.94009 204.855 9.45587 204.73 10.1123H201.416C201.572 9.17453 201.916 8.31491 202.448 7.58032C202.979 6.83011 203.667 6.25181 204.526 5.82982C205.386 5.40782 206.355 5.20464 207.418 5.20464C208.481 5.20464 209.512 5.43908 210.403 5.89233C211.294 6.34559 211.982 7.00203 212.497 7.84602C212.998 8.69002 213.248 9.69031 213.248 10.8469V18.521H209.887V16.6611C209.528 17.255 208.934 17.7551 208.121 18.1615V18.1459ZM208.059 15.7389C208.59 15.5045 209.028 15.145 209.371 14.6761C209.715 14.2072 209.887 13.6446 209.887 13.0038V12.91H206.746C205.996 12.91 205.433 13.0663 205.058 13.3632C204.683 13.6602 204.495 14.0509 204.495 14.5511C204.495 15.0512 204.667 15.3951 205.011 15.692C205.355 15.9734 205.824 16.114 206.433 16.114C206.98 16.114 207.527 15.989 208.059 15.7546V15.7389Z" fill="#032644"/>
<path d="M67.5499 46.7323H75.5678V52.8747H60.3916V27.086H67.5655V46.7479L67.5499 46.7323Z" fill="#032644"/>
<path d="M85.5089 46.7323H93.5268V52.8747H78.3506V27.086H85.5245V46.7479L85.5089 46.7323Z" fill="#032644"/>
<path d="M103.482 33.2284V37.042H111.719V42.7155H103.482V46.7479H112.813V52.8903H96.3086V27.1016H112.813V33.244H103.482V33.2284Z" fill="#032644"/>
<path d="M211.669 33.2284V37.042H219.906V42.7155H211.669V46.7479H221V52.8903H204.495V27.1016H221V33.244H211.669V33.2284Z" fill="#032644"/>
<path d="M163.233 27.086V33.2284H156.356V52.8903H149.183V33.2284H142.384V27.086H163.233Z" fill="#032644"/>
<path d="M173.065 27.086V52.8747H165.891V27.086H173.065Z" fill="#032644"/>
<path d="M202.261 27.086L193.367 52.8747H184.177L175.253 27.086H182.943L188.804 45.7007L194.618 27.086H202.261Z" fill="#032644"/>
<path d="M54.4372 29.2585C51.8428 26.664 47.4353 25.9606 43.7155 25.9606H41.7618C38.0263 25.9606 33.6345 26.664 31.04 29.2585C28.4455 31.853 27.7422 36.2449 27.7422 39.9803C27.7422 43.7158 28.4455 48.1077 31.04 50.7022C33.6345 53.2967 38.042 54 41.7618 54H43.7155C47.4509 54 51.8428 53.2967 54.4372 50.7022C57.0317 48.1077 57.735 43.7158 57.735 39.9803C57.735 36.2449 57.0317 31.853 54.4372 29.2585ZM40.7146 33.3847L42.6058 30.6182C42.6683 30.5401 42.7777 30.5401 42.8402 30.6182L44.7314 33.3847C45.9817 35.2133 45.9817 37.6203 44.7314 39.4645L42.8402 42.231C42.7777 42.3091 42.6683 42.3091 42.6058 42.231L40.7146 39.4645C39.4643 37.6359 39.4643 35.2289 40.7146 33.3847ZM52.593 42.7936C51.9678 46.5603 48.0135 47.2168 45.7473 47.3887C44.325 47.4825 43.2778 48.1077 42.8558 49.3111C42.8089 49.4205 42.6683 49.4205 42.6214 49.3111C42.1994 48.1077 41.1522 47.4825 39.73 47.3887C37.4637 47.2324 33.4938 46.5603 32.8843 42.7936C32.7905 42.2622 32.7905 41.5745 32.8843 40.9806C32.8843 40.9337 32.9312 40.9025 32.978 40.9025H35.807C39.7143 40.9025 41.8712 43.1531 42.5901 45.6851C42.637 45.8414 42.8558 45.8414 42.9027 45.6851C43.6217 43.1687 45.7629 40.9025 49.6859 40.9025H52.5148C52.5148 40.9025 52.593 40.9337 52.6086 40.9806C52.718 41.5745 52.7024 42.2622 52.6086 42.7936H52.593Z" fill="#028FFF"/>
<path d="M17.8801 43.0124C17.0204 44.9661 15.2856 46.2321 12.8786 46.2321C9.39328 46.2321 7.28331 43.5282 7.28331 39.9803C7.28331 36.4324 9.37765 33.7285 12.8786 33.7285C15.2699 33.7285 17.0204 35.0101 17.8801 36.9482H25.4916C24.335 30.9152 19.6618 26.7734 13.2069 26.7734C5.72037 26.7734 0 32.3531 0 39.9803C0 47.6075 5.72037 53.1873 13.2069 53.1873C19.6618 53.1873 24.3194 49.0454 25.4916 43.0124H17.8801Z" fill="#032644"/>
<path d="M133.35 43.0124C132.49 44.9661 130.755 46.2321 128.348 46.2321C124.863 46.2321 122.753 43.5282 122.753 39.9803C122.753 36.4324 124.847 33.7285 128.348 33.7285C130.74 33.7285 132.49 35.0101 133.35 36.9482H140.961C139.805 30.9152 135.132 26.7734 128.677 26.7734C121.19 26.7734 115.47 32.3531 115.47 39.9803C115.47 47.6075 121.19 53.1873 128.677 53.1873C135.132 53.1873 139.789 49.0454 140.961 43.0124H133.35Z" fill="#032644"/>
</g>
<defs>
<clipPath id="clip0_6441_13194">
<rect width="221" height="54" fill="white"/>
</clipPath>
</defs>
</svg>
