<svg width="31" height="29" viewBox="27 25 31 29" fill="none" xmlns="http://www.w3.org/2000/svg">
  <path d="M54.4372 29.2585C51.8428 26.664 47.4353 25.9606 43.7155 25.9606H41.7618C38.0263 25.9606 33.6345 26.664 31.04 29.2585C28.4455 31.853 27.7422 36.2449 27.7422 39.9803C27.7422 43.7158 28.4455 48.1077 31.04 50.7022C33.6345 53.2967 38.042 54 41.7618 54H43.7155C47.4509 54 51.8428 53.2967 54.4372 50.7022C57.0317 48.1077 57.735 43.7158 57.735 39.9803C57.735 36.2449 57.0317 31.853 54.4372 29.2585ZM40.7146 33.3847L42.6058 30.6182C42.6683 30.5401 42.7777 30.5401 42.8402 30.6182L44.7314 33.3847C45.9817 35.2133 45.9817 37.6203 44.7314 39.4645L42.8402 42.231C42.7777 42.3091 42.6683 42.3091 42.6058 42.231L40.7146 39.4645C39.4643 37.6359 39.4643 35.2289 40.7146 33.3847ZM52.593 42.7936C51.9678 46.5603 48.0135 47.2168 45.7473 47.3887C44.325 47.4825 43.2778 48.1077 42.8558 49.3111C42.8089 49.4205 42.6683 49.4205 42.6214 49.3111C42.1994 48.1077 41.1522 47.4825 39.73 47.3887C37.4637 47.2324 33.4938 46.5603 32.8843 42.7936C32.7905 42.2622 32.7905 41.5745 32.8843 40.9806C32.8843 40.9337 32.9312 40.9025 32.978 40.9025H35.807C39.7143 40.9025 41.8712 43.1531 42.5901 45.6851C42.637 45.8414 42.8558 45.8414 42.9027 45.6851C43.6217 43.1687 45.7629 40.9025 49.6859 40.9025H52.5148C52.5148 40.9025 52.593 40.9337 52.6086 40.9806C52.718 41.5745 52.7024 42.2622 52.6086 42.7936H52.593Z" fill="#028FFF"/>
</svg>